<svg width="12" height="12" viewBox="0 0 12 12" fill="none" xmlns="http://www.w3.org/2000/svg">
<path d="M5.62448 0C4.38167 0 3.37417 1.0075 3.37417 2.25031C3.37417 3.36538 4.18521 4.29102 5.24956 4.46952V5.62454H2.99975C2.37848 5.62454 1.87485 6.12818 1.87485 6.74945V7.53057C0.81076 7.70929 0 8.63481 0 9.74969C0 10.9925 1.0075 12 2.25031 12C3.49312 12 4.50061 10.9925 4.50061 9.74969C4.50061 8.63447 3.68935 7.70872 2.62478 7.5304V6.74945C2.62478 6.54236 2.79266 6.37448 2.99975 6.37448H8.24932C8.45641 6.37448 8.62429 6.54236 8.62429 6.74945V7.53057C7.56021 7.70929 6.74945 8.63481 6.74945 9.74969C6.74945 10.9925 7.75694 12 8.99975 12C10.2426 12 11.2501 10.9925 11.2501 9.74969C11.2501 8.63447 10.4388 7.70872 9.37423 7.5304V6.74945C9.37423 6.12818 8.87059 5.62454 8.24932 5.62454H5.9995V4.46951C7.0638 4.29097 7.87479 3.36535 7.87479 2.25031C7.87479 1.0075 6.86729 0 5.62448 0ZM4.12411 2.25031C4.12411 1.42168 4.79585 0.749939 5.62448 0.749939C6.45311 0.749939 7.12485 1.42168 7.12485 2.25031C7.12485 3.07894 6.45311 3.75068 5.62448 3.75068C4.79585 3.75068 4.12411 3.07894 4.12411 2.25031ZM0.749939 9.74969C0.749939 8.92106 1.42168 8.24932 2.25031 8.24932C3.07894 8.24932 3.75068 8.92106 3.75068 9.74969C3.75068 10.5783 3.07894 11.2501 2.25031 11.2501C1.42168 11.2501 0.749939 10.5783 0.749939 9.74969ZM8.99975 8.24932C9.82839 8.24932 10.5001 8.92106 10.5001 9.74969C10.5001 10.5783 9.82839 11.2501 8.99975 11.2501C8.17112 11.2501 7.49939 10.5783 7.49939 9.74969C7.49939 8.92106 8.17112 8.24932 8.99975 8.24932Z" fill="#121826"/>
</svg>
