<svg width="12" height="12" viewBox="0 0 12 12" fill="none" xmlns="http://www.w3.org/2000/svg">
<path d="M1.71428 1.71428C1.71428 0.767511 2.4818 0 3.42857 0C4.37534 0 5.14285 0.767511 5.14285 1.71428C5.14285 2.26694 4.88134 2.75851 4.47531 3.072C4.46309 3.08101 4.45096 3.09012 4.43891 3.09934C4.15558 3.30637 3.80635 3.42857 3.42857 3.42857C2.4818 3.42857 1.71428 2.66106 1.71428 1.71428ZM3.42857 0.857142C2.95518 0.857142 2.57143 1.2409 2.57143 1.71428C2.57143 2.18767 2.95518 2.57143 3.42857 2.57143C3.90195 2.57143 4.28571 2.18767 4.28571 1.71428C4.28571 1.2409 3.90195 0.857142 3.42857 0.857142ZM7.52468 3.072C7.11865 2.7585 6.85714 2.26693 6.85714 1.71428C6.85714 0.767511 7.62465 0 8.57142 0C9.51819 0 10.2857 0.767511 10.2857 1.71428C10.2857 2.66106 9.51819 3.42857 8.57142 3.42857C8.19364 3.42857 7.84441 3.30637 7.56108 3.09934C7.54903 3.09012 7.53689 3.08101 7.52468 3.072ZM8.57142 0.857142C8.09803 0.857142 7.71428 1.2409 7.71428 1.71428C7.71428 2.18767 8.09803 2.57143 8.57142 2.57143C9.04481 2.57143 9.42856 2.18767 9.42856 1.71428C9.42856 1.2409 9.04481 0.857142 8.57142 0.857142ZM1.2857 4.28571L3.57489 4.28571C3.48013 4.55381 3.42857 4.84231 3.42857 5.14285L1.2857 5.14285C1.04903 5.14285 0.857142 5.33474 0.857142 5.57142C0.857142 6.27163 1.13531 6.79091 1.57552 7.14424C1.77792 7.3067 2.02031 7.43826 2.29433 7.53389C2.0953 7.74596 1.93895 7.99856 1.83897 8.27797C1.54758 8.15939 1.27799 8.00452 1.03898 7.81269C0.393403 7.29451 0 6.52807 0 5.57142C0 4.86137 0.575624 4.28571 1.2857 4.28571ZM4.51505 4.28571C4.36919 4.53786 4.28571 4.83061 4.28571 5.14285C4.28571 5.86589 4.73333 6.48437 5.36657 6.73631C5.56252 6.81427 5.77626 6.85714 5.99999 6.85714C6.22374 6.85714 6.43747 6.81427 6.63342 6.73631C7.26666 6.48437 7.71428 5.86588 7.71428 5.14285C7.71428 4.83061 7.6308 4.53786 7.48494 4.28571C7.18853 3.77331 6.63452 3.42857 5.99999 3.42857C5.36547 3.42857 4.81146 3.77331 4.51505 4.28571ZM5.80768 4.30737C5.8695 4.2932 5.93387 4.28571 5.99999 4.28571C6.06611 4.28571 6.13049 4.2932 6.19231 4.30737C6.5731 4.39466 6.85714 4.73559 6.85714 5.14285C6.85714 5.20897 6.84965 5.27335 6.83548 5.33517C6.74818 5.71596 6.40726 5.99999 5.99999 5.99999C5.59273 5.99999 5.25181 5.71596 5.16451 5.33517C5.15034 5.27335 5.14285 5.20897 5.14285 5.14285C5.14285 4.73559 5.42689 4.39466 5.80768 4.30737ZM10.4245 7.14424C10.2221 7.3067 9.97968 7.43826 9.70567 7.53389C9.90469 7.74596 10.061 7.99856 10.161 8.27797C10.4524 8.15939 10.722 8.00452 10.961 7.81269C11.6066 7.29451 12 6.52807 12 5.57142C12 4.86134 11.4244 4.28571 10.7143 4.28571H8.4251C8.51986 4.55381 8.57142 4.84231 8.57142 5.14285H10.7143C10.951 5.14285 11.1428 5.33473 11.1428 5.57142C11.1428 6.27163 10.8647 6.79091 10.4245 7.14424ZM8.14285 7.71428C8.67932 7.71428 9.13904 8.04284 9.33177 8.50972C9.39415 8.66081 9.42856 8.82638 9.42856 8.99999C9.42856 9.95663 9.03516 10.7231 8.38958 11.2413C7.75421 11.7512 6.90263 12 5.99999 12C5.09736 12 4.24578 11.7512 3.61041 11.2413C2.96483 10.7231 2.57143 9.95663 2.57143 8.99999C2.57143 8.82638 2.60584 8.66081 2.66822 8.50972C2.86095 8.04285 3.32067 7.71428 3.85712 7.71428L8.14285 7.71428ZM8.14285 8.57142H3.85712C3.62046 8.57142 3.42857 8.76331 3.42857 8.99999C3.42857 9.7002 3.70674 10.2195 4.14694 10.5728C4.59735 10.9343 5.24578 11.1429 5.99999 11.1429C6.75421 11.1429 7.40263 10.9343 7.85305 10.5728C8.29325 10.2195 8.57142 9.7002 8.57142 8.99999C8.57142 8.7633 8.37954 8.57142 8.14285 8.57142Z" fill="#121826"/>
</svg>
