<svg width="12" height="9" viewBox="0 0 12 9" fill="none" xmlns="http://www.w3.org/2000/svg">
<path d="M6.85714 3.42857C6.85714 4.37534 6.08963 5.14286 5.14286 5.14286C4.19608 5.14286 3.42857 4.37534 3.42857 3.42857C3.42857 2.4818 4.19608 1.71429 5.14286 1.71429C6.08963 1.71429 6.85714 2.4818 6.85714 3.42857ZM6 3.42857C6 2.95518 5.61624 2.57143 5.14286 2.57143C4.66947 2.57143 4.28571 2.95518 4.28571 3.42857C4.28571 3.90196 4.66947 4.28571 5.14286 4.28571C5.61624 4.28571 6 3.90196 6 3.42857ZM0 1.07143C0 0.479695 0.479695 0 1.07143 0H9.21429C9.80602 0 10.2857 0.479695 10.2857 1.07143V5.78571C10.2857 6.37745 9.80602 6.85714 9.21429 6.85714H1.07143C0.479695 6.85714 0 6.37745 0 5.78571V1.07143ZM1.07143 0.857143C0.953082 0.857143 0.857143 0.953082 0.857143 1.07143V1.71429H1.28571C1.52241 1.71429 1.71429 1.52241 1.71429 1.28571V0.857143H1.07143ZM0.857143 5.78571C0.857143 5.90406 0.953082 6 1.07143 6H1.71429V5.57143C1.71429 5.33473 1.52241 5.14286 1.28571 5.14286H0.857143V5.78571ZM2.57143 5.57143V6H7.71429V5.57143C7.71429 4.86135 8.28992 4.28571 9 4.28571H9.42857V2.57143H9C8.28992 2.57143 7.71429 1.99579 7.71429 1.28571V0.857143H2.57143V1.28571C2.57143 1.99579 1.99579 2.57143 1.28571 2.57143H0.857143V4.28571H1.28571C1.99579 4.28571 2.57143 4.86135 2.57143 5.57143ZM8.57143 6H9.21429C9.33263 6 9.42857 5.90406 9.42857 5.78571V5.14286H9C8.76331 5.14286 8.57143 5.33473 8.57143 5.57143V6ZM9.42857 1.71429V1.07143C9.42857 0.953082 9.33263 0.857143 9.21429 0.857143H8.57143V1.28571C8.57143 1.52241 8.76331 1.71429 9 1.71429H9.42857ZM3 8.57143C2.42863 8.57143 1.94431 8.19872 1.77689 7.68316C1.89582 7.70362 2.01809 7.71429 2.14286 7.71429H9.21429C10.2794 7.71429 11.1429 6.85083 11.1429 5.78571V1.78745C11.6422 1.96395 12 2.44019 12 3V5.78571C12 7.32422 10.7528 8.57143 9.21429 8.57143H3Z" fill="#121826"/>
</svg>
