<svg width="11" height="11" viewBox="0 0 11 11" fill="none" xmlns="http://www.w3.org/2000/svg">
<path d="M9.92731 4.88946C10.5179 4.88946 10.9967 5.36822 10.9967 5.95881V9.93066C10.9967 10.5212 10.5179 11 9.92731 11H7.17757C6.58698 11 6.10822 10.5212 6.10822 9.93066V5.95881C6.10822 5.36822 6.58698 4.88946 7.17757 4.88946H9.92731ZM3.82789 7.34126C4.41847 7.34126 4.89724 7.82002 4.89724 8.41061V9.93066C4.89724 10.5212 4.41847 11 3.82789 11H1.06934C0.478762 11 0 10.5212 0 9.93066V8.41061C0 7.82002 0.478762 7.34126 1.06934 7.34126H3.82789ZM9.92731 5.80604H7.17757C7.0932 5.80604 7.0248 5.87444 7.0248 5.95881V9.93066C7.0248 10.015 7.0932 10.0834 7.17757 10.0834H9.92731C10.0117 10.0834 10.0801 10.015 10.0801 9.93066V5.95881C10.0801 5.87444 10.0117 5.80604 9.92731 5.80604ZM3.82789 8.25784H1.06934C0.984975 8.25784 0.916581 8.32624 0.916581 8.41061V9.93066C0.916581 10.015 0.984975 10.0834 1.06934 10.0834H3.82789C3.91226 10.0834 3.98065 10.015 3.98065 9.93066V8.41061C3.98065 8.32624 3.91226 8.25784 3.82789 8.25784ZM3.81909 0C4.40967 0 4.88843 0.478762 4.88843 1.06934V5.04119C4.88843 5.60225 4.45635 6.06238 3.90679 6.10699L3.81909 6.11054H1.06934C0.478762 6.11054 0 5.63178 0 5.04119V1.06934C0 0.478762 0.478762 0 1.06934 0H3.81909ZM3.81909 0.916581H1.06934C0.984975 0.916581 0.916581 0.984975 0.916581 1.06934V5.04119C0.916581 5.12556 0.984975 5.19396 1.06934 5.19396H3.81909L3.85411 5.18992C3.9216 5.17409 3.97185 5.11351 3.97185 5.04119V1.06934C3.97185 0.984975 3.90346 0.916581 3.81909 0.916581ZM9.92731 0C10.5179 0 10.9967 0.478762 10.9967 1.06934V2.59698C10.9967 3.18756 10.5179 3.66632 9.92731 3.66632H7.17757C6.58698 3.66632 6.10822 3.18756 6.10822 2.59698V1.06934C6.10822 0.478762 6.58698 0 7.17757 0H9.92731ZM7.17757 0.916581C7.0932 0.916581 7.0248 0.984975 7.0248 1.06934V2.59698C7.0248 2.68135 7.0932 2.74974 7.17757 2.74974H9.92731C10.0117 2.74974 10.0801 2.68135 10.0801 2.59698V1.06934C10.0801 0.984975 10.0117 0.916581 9.92731 0.916581H7.17757Z" fill="#121826"/>
</svg>
