<svg width="12" height="10" viewBox="0 0 12 10" fill="none" xmlns="http://www.w3.org/2000/svg">
<path d="M2.48094 0.0782612L0.173244 1.50683C0.0201856 1.60158 0 1.76429 0 1.90714V3.21429C0 3.61637 0.171734 3.98741 0.461538 4.28589V9.64286C0.461538 9.8401 0.668176 10 0.923077 10H11.0769C11.3318 10 11.5385 9.8401 11.5385 9.64286V4.28589C11.8283 3.98741 12 3.61637 12 3.21429V1.90393C12 1.76081 11.9799 1.60158 11.8268 1.50683L9.51912 0.0782612C9.43728 0.0276003 9.3356 0 9.2308 0H2.76926C2.66445 0 2.56277 0.0276003 2.48094 0.0782612ZM3.69231 2.14286V3.21429C3.69231 3.80602 3.07239 4.28571 2.30769 4.28571C1.54299 4.28571 0.923077 3.80602 0.923077 3.21429V2.14286H3.69231ZM7.38462 2.14286V3.21429C7.38462 3.80602 6.7647 4.28571 6 4.28571C5.2353 4.28571 4.61538 3.80602 4.61538 3.21429V2.14286H7.38462ZM11.0769 2.14286V3.21429C11.0769 3.80602 10.457 4.28571 9.69231 4.28571C8.92761 4.28571 8.30769 3.80602 8.30769 3.21429V2.14286H11.0769ZM4.18019 0.714286L3.83403 1.42857H1.77731L2.93116 0.714286H4.18019ZM4.81988 1.42857L5.16603 0.714286H6.82116L7.12885 1.42857H4.81988ZM7.79417 0.714286H9.0689L10.2227 1.42857H8.10186L7.79417 0.714286ZM10.6154 4.85141V9.28571H6V6.07143C6 5.87418 5.79336 5.71429 5.53846 5.71429H2.76923C2.51433 5.71429 2.30769 5.87418 2.30769 6.07143V9.28571H1.38462V4.85141C1.66729 4.94698 1.97949 5 2.30769 5C3.06259 5 3.73282 4.71952 4.15385 4.28589C4.57488 4.71952 5.24511 5 6 5C6.75489 5 7.42513 4.71952 7.84615 4.28589C8.26718 4.71952 8.93742 5 9.69231 5C10.0205 5 10.3327 4.94698 10.6154 4.85141ZM5.07692 9.28571H3.23077V6.42857H5.07692V9.28571Z" fill="#121826"/>
</svg>
