<svg width="12" height="12" viewBox="0 0 12 12" fill="none" xmlns="http://www.w3.org/2000/svg">
<path d="M3.16872 3.31015C2.95117 3.21691 2.69922 3.31769 2.60598 3.53525C2.51274 3.7528 2.61352 4.00475 2.83108 4.09799L5.57133 5.27238V7.98979C5.57133 8.22648 5.76321 8.41836 5.9999 8.41836C6.23659 8.41836 6.42847 8.22648 6.42847 7.98979V5.27238L9.16872 4.09799C9.38628 4.00475 9.48706 3.7528 9.39382 3.53525C9.30058 3.31769 9.04863 3.21691 8.83108 3.31015L5.9999 4.52351L3.16872 3.31015ZM6.92309 0.171397C6.32891 -0.0571325 5.67109 -0.0571322 5.07691 0.171397L0.82417 1.80707C0.327637 1.99804 0 2.47509 0 3.00708V8.68686C0 9.21885 0.327638 9.6959 0.82417 9.88687L5.07691 11.5225C5.67109 11.7511 6.32891 11.7511 6.92309 11.5225L11.1758 9.88687C11.6724 9.6959 12 9.21885 12 8.68686V3.00708C12 2.47509 11.6724 1.99804 11.1758 1.80707L6.92309 0.171397ZM5.38461 0.971408C5.78072 0.819055 6.21928 0.819055 6.61539 0.971407L10.8681 2.60708C11.0336 2.67074 11.1429 2.82975 11.1429 3.00708V8.68686C11.1429 8.86419 11.0336 9.0232 10.8681 9.08686L6.61539 10.7225C6.21928 10.8749 5.78072 10.8749 5.38461 10.7225L1.13187 9.08686C0.966355 9.0232 0.857143 8.86419 0.857143 8.68686V3.00708C0.857143 2.82975 0.966355 2.67074 1.13187 2.60708L5.38461 0.971408Z" fill="#121826"/>
</svg>
