<svg width="12" height="12" viewBox="0 0 12 12" fill="none" xmlns="http://www.w3.org/2000/svg">
<path d="M5.74994 3.99805C4.64537 3.99805 3.74994 4.89348 3.74994 5.99805C3.74994 7.10262 4.64537 7.99805 5.74994 7.99805C6.85451 7.99805 7.74994 7.10262 7.74994 5.99805C7.74994 4.89348 6.85451 3.99805 5.74994 3.99805ZM4.74994 5.99805C4.74994 5.44576 5.19765 4.99805 5.74994 4.99805C6.30222 4.99805 6.74994 5.44576 6.74994 5.99805C6.74994 6.55033 6.30222 6.99805 5.74994 6.99805C5.19765 6.99805 4.74994 6.55033 4.74994 5.99805ZM8.36803 2.39638C7.98299 2.4663 7.61392 2.21218 7.5437 1.82878L7.28397 0.413004C7.25816 0.272316 7.14961 0.161057 7.00912 0.131301C6.59818 0.0442616 6.17685 0 5.75 0C5.32289 0 4.9013 0.0443156 4.49013 0.13146C4.3496 0.161243 4.24104 0.272572 4.21529 0.413314L3.95629 1.82885C3.9494 1.86648 3.93942 1.90356 3.92647 1.93965C3.79476 2.30663 3.3892 2.49782 3.02062 2.36668L1.66115 1.88267C1.52603 1.83457 1.37511 1.87235 1.27891 1.97837C0.710048 2.60533 0.278915 3.34513 0.017202 4.15107C-0.0269501 4.28704 0.0156229 4.43609 0.125024 4.52858L1.22694 5.46011C1.25626 5.4849 1.28352 5.51204 1.30843 5.54125C1.56177 5.83832 1.52528 6.28363 1.22693 6.53588L0.125024 7.46739C0.0156229 7.55988 -0.0269501 7.70894 0.017202 7.8449C0.278915 8.65084 0.710048 9.39064 1.27891 10.0176C1.37511 10.1236 1.52603 10.1614 1.66115 10.1133L3.02068 9.62927C3.05687 9.6164 3.0941 9.60647 3.13196 9.59959C3.51701 9.52967 3.88608 9.78379 3.9563 10.1672L4.21529 11.5827C4.24104 11.7234 4.3496 11.8347 4.49013 11.8645C4.9013 11.9517 5.32289 11.996 5.75 11.996C6.17685 11.996 6.59818 11.9517 7.00912 11.8647C7.14961 11.8349 7.25816 11.7237 7.28397 11.583L7.54368 10.1673C7.5506 10.1295 7.56058 10.0924 7.57353 10.0563C7.70524 9.68934 8.1108 9.49815 8.47938 9.6293L9.83885 10.1133C9.97397 10.1614 10.1249 10.1236 10.2211 10.0176C10.79 9.39064 11.2211 8.65084 11.4828 7.8449C11.527 7.70894 11.4844 7.55988 11.375 7.46739L10.2731 6.53586C10.2437 6.51107 10.2165 6.48393 10.1916 6.45472C9.93823 6.15765 9.97472 5.71234 10.2731 5.46009L11.375 4.52858C11.4844 4.43609 11.527 4.28704 11.4828 4.15107C11.2211 3.34513 10.79 2.60533 10.2211 1.97837C10.1249 1.87235 9.97397 1.83457 9.83885 1.88267L8.47932 2.3667C8.44313 2.37957 8.4059 2.38951 8.36803 2.39638ZM1.74863 2.9753L2.68522 3.30875C3.57017 3.62363 4.54872 3.1662 4.86769 2.27745C4.89903 2.19012 4.92324 2.10014 4.93996 2.00883L5.11738 1.03918C5.3257 1.01317 5.53684 1 5.75 1C5.963 1 6.17397 1.01315 6.38214 1.03912L6.56011 2.00922C6.73053 2.93885 7.62266 3.54808 8.5467 3.38029C8.63773 3.36376 8.7275 3.33981 8.81472 3.30877L9.75137 2.9753C10.0064 3.30889 10.2184 3.67281 10.3819 4.05868L9.62743 4.69645C8.90657 5.30592 8.81746 6.38453 9.43067 7.1036C9.49083 7.17414 9.55668 7.2397 9.62746 7.29955L10.3819 7.93729C10.2184 8.32316 10.0064 8.68709 9.75137 9.02067L8.81461 8.68716C7.92966 8.37228 6.95128 8.82978 6.63231 9.71852C6.60096 9.80587 6.57677 9.89586 6.56004 9.98713L6.38214 10.9569C6.17397 10.9828 5.963 10.996 5.75 10.996C5.53684 10.996 5.3257 10.9828 5.11738 10.9568L4.93994 9.98703C4.76965 9.05725 3.87743 8.44787 2.9533 8.61568C2.86227 8.63221 2.7725 8.65617 2.68528 8.6872L1.74863 9.02067C1.49357 8.68709 1.28161 8.32316 1.11814 7.93729L1.87257 7.29952C2.59343 6.69005 2.68254 5.61144 2.06933 4.89237C2.00917 4.82183 1.94332 4.75627 1.87254 4.69643L1.11814 4.05868C1.28161 3.67281 1.49357 3.30889 1.74863 2.9753Z" fill="#121826"/>
</svg>
