<svg width="11" height="12" viewBox="0 0 11 12" fill="none" xmlns="http://www.w3.org/2000/svg">
<path d="M0 2.1C0 0.940202 0.940202 0 2.1 0C3.2598 0 4.2 0.940202 4.2 2.1C4.2 3.05373 3.56421 3.85897 2.69336 4.115C3.10607 5.46674 4.36322 6.44999 5.85002 6.44999H6.04833C6.25433 5.50644 7.09467 4.8 8.1 4.8C9.2598 4.8 10.2 5.7402 10.2 6.9C10.2 8.0598 9.2598 9 8.1 9C7.09466 9 6.25432 8.29355 6.04832 7.34999H5.85002C4.51143 7.34999 3.3191 6.72378 2.55 5.74833L2.55 7.84833C3.49355 8.05433 4.2 8.89466 4.2 9.9C4.2 11.0598 3.2598 12 2.1 12C0.940202 12 0 11.0598 0 9.9C0 8.89466 0.706445 8.05433 1.65 7.84833L1.65 4.15167C0.706445 3.94567 0 3.10534 0 2.1ZM2.1 0.9C1.43726 0.9 0.9 1.43726 0.9 2.1C0.9 2.76274 1.43726 3.3 2.1 3.3C2.76274 3.3 3.3 2.76274 3.3 2.1C3.3 1.43726 2.76274 0.9 2.1 0.9ZM2.1 8.7C1.43726 8.7 0.9 9.23726 0.9 9.9C0.9 10.5627 1.43726 11.1 2.1 11.1C2.76274 11.1 3.3 10.5627 3.3 9.9C3.3 9.23726 2.76274 8.7 2.1 8.7ZM6.9 6.9C6.9 7.56274 7.43726 8.1 8.1 8.1C8.76274 8.1 9.3 7.56274 9.3 6.9C9.3 6.23726 8.76274 5.7 8.1 5.7C7.43726 5.7 6.9 6.23726 6.9 6.9Z" fill="#121826"/>
</svg>
