<svg width="12" height="9" viewBox="0 0 12 9" fill="none" xmlns="http://www.w3.org/2000/svg">
<path d="M8.14286 6C7.90616 6 7.71429 6.19188 7.71429 6.42857C7.71429 6.66526 7.90616 6.85714 8.14286 6.85714H9.85714C10.0938 6.85714 10.2857 6.66526 10.2857 6.42857C10.2857 6.19188 10.0938 6 9.85714 6H8.14286ZM0 1.71429C0 0.767512 0.767512 0 1.71429 0H10.2857C11.2325 0 12 0.767512 12 1.71429V6.85714C12 7.80392 11.2325 8.57143 10.2857 8.57143H1.71429C0.767512 8.57143 0 7.80392 0 6.85714V1.71429ZM11.1429 1.71429C11.1429 1.2409 10.7591 0.857143 10.2857 0.857143H1.71429C1.2409 0.857143 0.857143 1.2409 0.857143 1.71429V2.57143H11.1429V1.71429ZM0.857143 6.85714C0.857143 7.33053 1.2409 7.71429 1.71429 7.71429H10.2857C10.7591 7.71429 11.1429 7.33053 11.1429 6.85714V3.42857H0.857143V6.85714Z" fill="#121826"/>
</svg>
