<svg width="10" height="12" viewBox="0 0 10 12" fill="none" xmlns="http://www.w3.org/2000/svg">
<path d="M8.16 6.24C8.95529 6.24 9.6 6.88471 9.6 7.68V8.16C9.6 10.0526 7.81487 12 4.8 12C1.78513 12 0 10.0526 0 8.16V7.68C0 6.88471 0.64471 6.24 1.44 6.24H8.16ZM8.16 7.2H1.44C1.1749 7.2 0.96 7.4149 0.96 7.68V8.16C0.96 9.54014 2.33487 11.04 4.8 11.04C7.26513 11.04 8.64 9.54014 8.64 8.16V7.68C8.64 7.4149 8.4251 7.2 8.16 7.2ZM4.8 0C6.25803 0 7.44 1.18197 7.44 2.64C7.44 4.09803 6.25803 5.28 4.8 5.28C3.34197 5.28 2.16 4.09803 2.16 2.64C2.16 1.18197 3.34197 0 4.8 0ZM4.8 0.96C3.87216 0.96 3.12 1.71216 3.12 2.64C3.12 3.56784 3.87216 4.32 4.8 4.32C5.72784 4.32 6.48 3.56784 6.48 2.64C6.48 1.71216 5.72784 0.96 4.8 0.96Z" fill="#212121"/>
</svg>
