<svg width="141" height="120" viewBox="0 0 141 120" fill="none" xmlns="http://www.w3.org/2000/svg">
<path d="M95.1082 5.02315C95.1082 5.02315 75.8775 29.3821 45.1084 14.8519C14.3393 0.32169 -16.4295 39.6384 10.0658 63.57C36.561 87.5015 10.6335 100.652 28.6338 115.319C49.0924 131.988 66.9035 98.1853 83.1427 105.878C118.983 122.855 145.536 116.134 139.553 96.4759C129.051 61.9688 115.621 59.7243 125.878 41.7752C136.134 23.8262 113.498 -13.4932 95.1082 5.02315Z" fill="#DEE9FF"/>
<path d="M93.1649 49.5559C93.1649 49.5559 112.737 48.285 114.262 28.9674C112.483 27.6965 109.941 20.0711 114.262 19.3086C118.583 18.5461 121.633 19.3086 121.633 19.3086C121.633 19.3086 129.513 25.4088 119.6 29.9841C119.345 32.5259 119.091 55.1478 98.7569 65.0608C78.4226 74.9739 93.1649 49.5559 93.1649 49.5559Z" fill="#699CFF"/>
<path d="M125.485 6.90152L117.638 5.47172C117.203 5.39242 116.786 5.68095 116.707 6.11619L113.879 21.6323C113.8 22.0675 114.088 22.4846 114.524 22.5639L122.37 23.9937C122.806 24.073 123.223 23.7845 123.302 23.3493L126.129 7.83318C126.209 7.39795 125.92 6.98083 125.485 6.90152Z" fill="#1630C9"/>
<path d="M103.007 63.5767C103.007 74.3437 98.2384 84.0025 90.6943 90.5603C84.2006 96.1965 75.888 99.2947 67.2895 99.2836C54.5907 99.2836 43.4475 92.6647 37.1134 82.6806C33.6962 77.2786 31.791 71.0587 31.5966 64.6696C31.4021 58.2804 32.9256 51.9562 36.0079 46.3564C39.0903 40.7566 43.6188 36.0864 49.1209 32.8329C54.6231 29.5795 60.8974 27.8619 67.2895 27.8594C83.8519 27.8594 97.7911 39.1348 101.817 54.4363C102.613 57.4178 103.013 60.4909 103.007 63.5767Z" fill="#A2BDFF"/>
<path d="M90.6943 90.5596C84.2006 96.1958 75.888 99.294 67.2895 99.2829C54.5907 99.2829 43.4475 92.664 37.1134 82.6799C42.685 78.1149 45.8266 78.6026 47.9211 79.3857C50.2087 80.25 51.4796 84.1237 58.0883 80.311C64.697 76.4983 70.0347 85.6488 72.5764 87.1738C82.7436 86.4419 88.0407 88.6075 90.6943 90.5596Z" fill="#1630C9"/>
<path d="M101.817 54.4362C86.7191 58.0151 87.7866 49.4239 86.3022 44.2182C84.7771 38.8805 83.7604 40.6597 74.3557 48.0312C64.9511 55.4027 63.9342 43.456 63.7616 41.4226C63.5786 39.3892 63.1719 38.627 58.3425 39.2265C53.5131 39.826 52.2422 36.0848 48.1753 38.6267C46.4876 39.684 44.1898 39.2061 42.0851 38.2809C45.3934 34.9701 49.3228 32.3451 53.6481 30.5567C57.9733 28.7683 62.6091 27.8517 67.2895 27.8594C83.8519 27.8593 97.7911 39.1347 101.817 54.4362Z" fill="#1630C9"/>
<path d="M36.9611 25.1752C36.7977 25.7272 36.8016 26.3154 36.9723 26.8652C37.1431 27.415 37.4731 27.9019 37.9205 28.2642C38.368 28.6265 38.9128 28.848 39.4862 28.9006C40.0595 28.9533 40.6356 28.8347 41.1415 28.56C41.6475 28.2852 42.0606 27.8666 42.3287 27.3571C42.5967 26.8476 42.7077 26.27 42.6475 25.6974C42.5873 25.1248 42.3587 24.5829 41.9905 24.1403C41.6224 23.6976 41.1312 23.3741 40.5792 23.2106C39.8389 22.9914 39.0419 23.0753 38.3634 23.4437C37.6849 23.8121 37.1805 24.435 36.9611 25.1752Z" fill="#699CFF"/>
<path d="M35.4665 18.1085C34.4282 18.6687 33.5114 19.4292 32.7691 20.3462C32.0268 21.2632 31.4739 22.3183 31.1423 23.4505C31.0778 23.6653 31.0564 23.8907 31.0792 24.1138C31.1021 24.3369 31.1688 24.5533 31.2754 24.7505C31.3821 24.9478 31.5267 25.1221 31.7008 25.2634C31.875 25.4046 32.0753 25.5101 32.2904 25.5738C32.5054 25.6375 32.7309 25.6581 32.9539 25.6344C33.1769 25.6108 33.393 25.5433 33.5899 25.4359C33.7868 25.3285 33.9605 25.1833 34.1012 25.0087C34.2418 24.834 34.3466 24.6333 34.4095 24.418C34.6171 23.7163 34.961 23.0624 35.4214 22.4937C35.8818 21.9249 36.4498 21.4524 37.0929 21.1032C37.7359 20.754 38.4415 20.5349 39.1692 20.4584C39.897 20.3819 40.6327 20.4496 41.3343 20.6574C41.5491 20.7219 41.7745 20.7433 41.9976 20.7205C42.2207 20.6976 42.4371 20.6309 42.6343 20.5243C42.8316 20.4176 43.0059 20.2731 43.1471 20.0989C43.2884 19.9247 43.3939 19.7244 43.4576 19.5094C43.5213 19.2943 43.5419 19.0688 43.5182 18.8458C43.4945 18.6228 43.4271 18.4067 43.3197 18.2098C43.2123 18.0129 43.0671 17.8392 42.8924 17.6985C42.7178 17.5579 42.517 17.4531 42.3018 17.3902C41.1716 17.0519 39.9855 16.9412 38.8122 17.0645C37.6389 17.1878 36.5017 17.5426 35.4665 18.1085Z" fill="#699CFF"/>
<path d="M32.789 13.1781C31.1019 14.0883 29.6121 15.3241 28.4059 16.8139C27.1996 18.3038 26.3009 20.0182 25.7617 21.8577C25.6334 22.291 25.6825 22.7575 25.8981 23.1545C26.1137 23.5516 26.4783 23.8468 26.9115 23.9751C27.3448 24.1034 27.8113 24.0544 28.2084 23.8387C28.6054 23.6231 28.9006 23.2585 29.0289 22.8253C29.4458 21.4171 30.136 20.1048 31.0601 18.9634C31.9841 17.8219 33.124 16.8737 34.4146 16.1728C35.7052 15.472 37.1212 15.0322 38.5818 14.8786C40.0423 14.7251 41.5188 14.8607 42.9269 15.2778C43.1417 15.3423 43.3671 15.3637 43.5902 15.3408C43.8133 15.318 44.0297 15.2513 44.227 15.1447C44.4243 15.038 44.5985 14.8934 44.7398 14.7193C44.8811 14.5451 44.9866 14.3448 45.0502 14.1297C45.1139 13.9147 45.1345 13.6892 45.1109 13.4662C45.0872 13.2432 45.0197 13.0271 44.9124 12.8302C44.805 12.6333 44.6598 12.4596 44.4851 12.3189C44.3104 12.1783 44.1097 12.0735 43.8944 12.0106C42.0581 11.4611 40.131 11.2814 38.2248 11.4818C36.3185 11.6822 34.4709 12.2587 32.789 13.1781Z" fill="#699CFF"/>
<path d="M45.492 6.61947C42.9467 5.86552 40.2779 5.62033 37.6379 5.89792C34.9978 6.1755 32.4383 6.97041 30.1056 8.23725C27.7728 9.5041 25.7124 11.2181 24.0421 13.2813C22.3717 15.3445 21.1242 17.7165 20.3707 20.2619C20.3062 20.4767 20.2848 20.7021 20.3077 20.9252C20.3305 21.1483 20.3972 21.3647 20.5038 21.5619C20.6105 21.7592 20.7551 21.9335 20.9292 22.0747C21.1034 22.216 21.3037 22.3215 21.5188 22.3852C21.7338 22.4489 21.9593 22.4695 22.1823 22.4458C22.4053 22.4221 22.6214 22.3547 22.8183 22.2473C23.0152 22.1399 23.1889 21.9947 23.3296 21.82C23.4702 21.6454 23.575 21.4446 23.6379 21.2294C24.2643 19.1131 25.3015 17.141 26.6902 15.4256C28.0788 13.7103 29.7918 12.2853 31.7313 11.232C33.6708 10.1788 35.7988 9.51789 37.9937 9.28715C40.1886 9.05641 42.4075 9.26032 44.5236 9.88723C44.9562 10.0133 45.4212 9.96286 45.8167 9.74698C46.2122 9.53111 46.5062 9.16737 46.6342 8.73533C46.7622 8.30329 46.714 7.83812 46.4999 7.4416C46.2858 7.04508 45.9234 6.74948 45.492 6.61947Z" fill="#699CFF"/>
</svg>
