<svg width="135" height="120" viewBox="0 0 135 120" fill="none" xmlns="http://www.w3.org/2000/svg">
<path d="M60.4269 9.33828C60.4269 9.33828 55.3547 35.4682 26.1891 36.5005C-2.97652 37.5329 -10.9576 79.6012 18.6502 87.4149C48.2579 95.2287 33.672 115.452 53.1602 119.547C75.3099 124.202 75.5847 91.4336 90.987 90.9067C124.981 89.7442 142.572 74.1758 130.278 61.5482C108.698 39.3822 97.5806 42.9553 98.3354 25.2414C99.0903 7.52757 67.1566 -12.008 60.4269 9.33828Z" fill="#DEE9FF"/>
<path d="M93.873 28.1562L24.6388 42.4448C22.433 42.9 21.0139 45.0572 21.4691 47.263L30.3866 90.472C30.8418 92.6779 32.9991 94.097 35.2049 93.6417L104.439 79.3532C106.645 78.8979 108.064 76.7407 107.609 74.5349L98.6912 31.3259C98.236 29.1201 96.0788 27.701 93.873 28.1562Z" fill="#1630C9"/>
<path d="M91.8409 33.3442L83.8671 34.9898C82.5436 35.2629 81.6921 36.5573 81.9652 37.8808L83.6109 45.8546C83.884 47.178 85.1784 48.0295 86.5019 47.7564L94.4757 46.1108C95.7992 45.8376 96.6506 44.5433 96.3775 43.2198L94.7319 35.246C94.4587 33.9225 93.1644 33.071 91.8409 33.3442Z" fill="white"/>
<path d="M59.9256 67.0024L33.0211 72.5549C32.9329 72.5731 32.8761 72.6594 32.8943 72.7477L33.7083 76.6917C33.7265 76.78 33.8128 76.8367 33.901 76.8185L60.8056 71.2659C60.8938 71.2477 60.9506 71.1615 60.9323 71.0732L60.1184 67.1291C60.1002 67.0409 60.0139 66.9842 59.9256 67.0024Z" fill="white"/>
<path d="M73.1345 72.8594L34.7201 80.7873C34.6319 80.8056 34.5751 80.8918 34.5933 80.9801L35.4073 84.9241C35.4255 85.0124 35.5118 85.0691 35.6 85.0509L74.0144 77.123C74.1027 77.1048 74.1594 77.0185 74.1412 76.9302L73.3273 72.9862C73.309 72.898 73.2228 72.8412 73.1345 72.8594Z" fill="white"/>
<path d="M106.612 90.559C113.028 90.559 118.229 85.358 118.229 78.9421C118.229 72.5263 113.028 67.3252 106.612 67.3252C100.196 67.3252 94.9951 72.5263 94.9951 78.9421C94.9951 85.358 100.196 90.559 106.612 90.559Z" fill="#1630C9" stroke="white" stroke-width="15" stroke-miterlimit="10"/>
<path d="M111.087 77.9694H107.779C107.754 77.9695 107.728 77.9644 107.705 77.9547C107.681 77.9449 107.66 77.9306 107.642 77.9125C107.623 77.8944 107.609 77.873 107.599 77.8494C107.59 77.8258 107.585 77.8005 107.585 77.7749V74.467C107.585 74.209 107.482 73.9615 107.3 73.7791C107.117 73.5966 106.87 73.4941 106.612 73.4941C106.354 73.4941 106.106 73.5966 105.924 73.7791C105.741 73.9615 105.639 74.209 105.639 74.467V77.7749C105.639 77.8005 105.634 77.8258 105.624 77.8494C105.614 77.873 105.6 77.8944 105.582 77.9125C105.564 77.9306 105.542 77.9449 105.519 77.9547C105.495 77.9644 105.47 77.9695 105.444 77.9694H102.137C101.88 77.9718 101.635 78.0753 101.454 78.2575C101.274 78.4397 101.173 78.6859 101.173 78.9424C101.173 79.1989 101.274 79.445 101.454 79.6272C101.635 79.8094 101.88 79.913 102.137 79.9153H105.444C105.496 79.9153 105.546 79.9358 105.582 79.9723C105.619 80.0088 105.639 80.0583 105.639 80.1099V83.4178C105.639 83.6758 105.742 83.9233 105.924 84.1057C106.106 84.2882 106.354 84.3907 106.612 84.3907C106.87 84.3907 107.117 84.2882 107.3 84.1057C107.482 83.9233 107.585 83.6758 107.585 83.4178V80.1099C107.585 80.0583 107.605 80.0088 107.642 79.9723C107.678 79.9358 107.728 79.9153 107.779 79.9153H111.087C111.344 79.913 111.589 79.8094 111.77 79.6272C111.95 79.445 112.051 79.1989 112.051 78.9424C112.051 78.6859 111.95 78.4397 111.77 78.2575C111.589 78.0753 111.344 77.9718 111.087 77.9694Z" fill="white"/>
</svg>
