<svg width="117" height="120" viewBox="0 0 117 120" fill="none" xmlns="http://www.w3.org/2000/svg">
<path d="M12.2434 52.5233C12.2434 52.5233 32.7186 51.7034 37.1433 18.0465C41.0726 -11.844 75.5991 1.76108 85.5795 13.6762C98.5081 29.1111 91.6163 55.6625 108.341 59.0168C125.066 62.371 114.144 99.6639 88.757 96.0943C57.1761 91.6539 64.8168 110.108 55.3364 117.919C48.5326 123.525 20.6341 118.128 19.7043 97.7786C18.9219 80.6545 11.6986 80.7088 6.57864 78.7671C-0.805474 75.9667 -5.45828 55.6855 12.2434 52.5233Z" fill="#DEE9FF"/>
<path d="M81.8475 89.9015L61.7313 70.0239L57.748 74.0551L77.8642 93.9327L81.8475 89.9015Z" fill="#699CFF"/>
<path d="M89.532 95.2423L73.8815 79.7775C73.7943 79.6914 73.6539 79.6922 73.5678 79.7794L67.6442 85.7741C67.5581 85.8612 67.5589 86.0017 67.6461 86.0878L83.2966 101.553C83.3837 101.639 83.5242 101.638 83.6103 101.551L89.5339 95.556C89.62 95.4688 89.6191 95.3284 89.532 95.2423Z" fill="#1630C9"/>
<path d="M43.9021 80.0207C57.7415 80.0207 68.9606 68.8016 68.9606 54.9622C68.9606 41.1229 57.7415 29.9038 43.9021 29.9038C30.0628 29.9038 18.8437 41.1229 18.8437 54.9622C18.8437 68.8016 30.0628 80.0207 43.9021 80.0207Z" fill="#1630C9"/>
<path d="M43.9021 75.932C55.4834 75.932 64.8718 66.5436 64.8718 54.9624C64.8718 43.3811 55.4834 33.9927 43.9021 33.9927C32.3209 33.9927 22.9325 43.3811 22.9325 54.9624C22.9325 66.5436 32.3209 75.932 43.9021 75.932Z" fill="#D4E5FF"/>
<path d="M86.2663 32.3095C80.3885 30.4043 74.0364 33.6266 72.1234 39.5286C70.2182 45.4064 73.4405 51.7586 79.3426 53.6715C85.2446 55.5844 91.5802 52.3305 93.4858 46.4524C95.3914 40.5743 92.1445 34.2147 86.2663 32.3095ZM84.4928 37.7814C85.1507 37.9947 85.7305 38.3986 86.1585 38.9418C86.5866 39.485 86.8437 40.1431 86.8972 40.8327C86.9507 41.5222 86.7982 42.2122 86.4591 42.8149C86.1199 43.4177 85.6094 43.9061 84.9923 44.2183C84.3751 44.5305 83.6792 44.6524 82.9926 44.5685C82.3061 44.4846 81.66 44.1987 81.1362 43.7471C80.6124 43.2955 80.2345 42.6985 80.0505 42.0318C79.8665 41.3651 79.8846 40.6587 80.1026 40.0024C80.6912 38.1864 82.6765 37.1928 84.4928 37.7814ZM80.0551 51.4732C78.1023 50.8434 76.4291 49.5544 75.3222 47.8268C77.3935 46.6498 79.5594 46.322 81.5188 46.9571C83.4783 47.5922 85.0716 49.1119 86.0271 51.2964C84.1172 52.0462 82.006 52.1087 80.0551 51.4732Z" fill="#418DF9"/>
<path d="M37.3433 85.8717C36.3223 86.3928 35.4788 87.205 34.9194 88.2055C34.3601 89.2061 34.11 90.35 34.2007 91.4927C34.2915 92.6353 34.7191 93.7254 35.4294 94.6251C36.1397 95.5247 37.1008 96.1936 38.1912 96.547C39.2816 96.9004 40.4524 96.9226 41.5554 96.6106C42.6584 96.2987 43.6441 95.6667 44.3879 94.7945C45.1317 93.9223 45.6002 92.8492 45.7341 91.7107C45.868 90.5723 45.6613 89.4198 45.1401 88.3988C44.4401 87.0309 43.226 85.9967 41.7643 85.5229C40.3026 85.0491 38.7126 85.1746 37.3433 85.8717ZM38.6932 88.5162C39.0111 88.3539 39.3702 88.2897 39.7247 88.3317C40.0793 88.3737 40.4133 88.5201 40.6846 88.7522C40.9558 88.9844 41.152 89.2919 41.2482 89.6357C41.3444 89.9795 41.3363 90.3441 41.225 90.6833C41.1137 91.0226 40.9041 91.3211 40.6229 91.541C40.3417 91.761 40.0014 91.8924 39.6454 91.9187C39.2893 91.945 38.9335 91.865 38.623 91.6888C38.3125 91.5125 38.0614 91.2481 37.9014 90.9289C37.6894 90.5034 37.6536 90.0115 37.8018 89.5598C37.95 89.1082 38.2703 88.7331 38.6932 88.516V88.5162ZM42.0707 95.1334C41.1282 95.6163 40.047 95.7565 39.0124 95.5299C39.3388 94.3443 40.0097 93.4342 40.9569 92.9508C41.9041 92.4674 43.0401 92.4406 44.1862 92.8891C43.7626 93.8598 43.0148 94.6531 42.0707 95.1331V95.1334Z" fill="#418DF9"/>
</svg>
