<svg width="141" height="120" viewBox="0 0 141 120" fill="none" xmlns="http://www.w3.org/2000/svg">
<path d="M95.1082 5.02299C95.1082 5.02299 75.8775 29.3822 45.1085 14.8523C14.3394 0.322519 -16.4297 39.6385 10.0659 63.57C36.5616 87.5014 10.6336 100.652 28.6337 115.318C49.0919 131.988 66.9032 98.1851 83.1424 105.877C118.983 122.855 145.535 116.134 139.552 96.4758C129.05 61.9687 115.621 59.7241 125.877 41.7752C136.133 23.8263 113.498 -13.493 95.1082 5.02299Z" fill="#DEE9FF"/>
<path d="M69.8866 57.0893V108.194L30.2077 91.0561L30.397 40.1357L69.8866 57.0893Z" fill="#1630C9"/>
<path d="M69.8872 57.1199V108.225L109.373 91.6786V40.2988L69.8872 57.1199Z" fill="#A2BDFF"/>
<path d="M69.8866 57.0894L109.566 40.4699L70.1983 23.0195L30.2077 40.0545L69.8866 57.0894Z" fill="#0E84E5"/>
<path d="M19.3721 49.1713L59.3037 68.5537C59.411 68.6058 59.5325 68.6212 59.6494 68.5976C59.7663 68.5739 59.8722 68.5125 59.9509 68.4228L69.8866 57.0896L30.2077 40.0547L19.2832 48.2458C19.2085 48.3018 19.1495 48.3761 19.1117 48.4615C19.074 48.5469 19.0589 48.6406 19.0678 48.7335C19.0768 48.8265 19.1094 48.9155 19.1627 48.9922C19.216 49.0689 19.2881 49.1306 19.3721 49.1713Z" fill="#699CFF"/>
<path d="M109.565 40.4707L120.585 50.4338C120.653 50.4945 120.704 50.5711 120.734 50.6566C120.764 50.7421 120.772 50.8337 120.758 50.9232C120.744 51.0128 120.708 51.0973 120.652 51.1692C120.597 51.2411 120.525 51.2981 120.442 51.3351L81.0029 68.9368C80.8976 68.9838 80.7801 68.9962 80.6673 68.9721C80.5545 68.948 80.4523 68.8888 80.3754 68.8029L69.8865 57.0902L109.565 40.4707Z" fill="#699CFF"/>
<path d="M70.1981 23.0199L109.676 40.4703L115.353 39.1544C115.465 39.1286 115.566 39.0681 115.641 38.9817C115.716 38.8953 115.762 38.7874 115.773 38.6733C115.783 38.5591 115.757 38.4447 115.699 38.3461C115.64 38.2476 115.552 38.17 115.447 38.1244L79.3989 22.5048C79.32 22.4707 79.2342 22.4556 79.1485 22.461L70.1981 23.0199Z" fill="#699CFF"/>
<path d="M70.1982 23.0202L30.9418 40.1364L25.9793 39.3025C25.8644 39.2811 25.7594 39.2233 25.6799 39.1376C25.6004 39.0519 25.5506 38.9429 25.5379 38.8267C25.5251 38.7105 25.5501 38.5933 25.6091 38.4924C25.6681 38.3915 25.7579 38.3123 25.8655 38.2664L62.8043 22.3472C62.886 22.3125 62.9749 22.2982 63.0633 22.3056L70.1982 23.0202Z" fill="#699CFF"/>
<path d="M111.113 100.258C116.526 100.258 120.914 95.8701 120.914 90.4572C120.914 85.0443 116.526 80.6562 111.113 80.6562C105.7 80.6562 101.312 85.0443 101.312 90.4572C101.312 95.8701 105.7 100.258 111.113 100.258Z" fill="#1630C9" stroke="white" stroke-width="15" stroke-miterlimit="10"/>
<path d="M114.228 87.5525C114.066 86.9897 113.84 86.5323 113.548 86.1841C113.266 85.8439 112.901 85.583 112.487 85.4271C111.596 85.1194 110.626 85.1194 109.735 85.4271C109.322 85.5821 108.957 85.8432 108.678 86.1841C108.382 86.5323 108.156 86.9897 107.998 87.5525C107.84 88.1153 107.759 88.8034 107.759 89.6131V91.2648C107.759 92.0745 107.84 92.7627 108.002 93.3295C108.129 93.8332 108.362 94.3038 108.686 94.71C108.967 95.0537 109.333 95.3187 109.747 95.4792C110.634 95.7977 111.604 95.7977 112.492 95.4792C112.903 95.3185 113.266 95.0534 113.545 94.71C113.863 94.3018 114.094 93.8316 114.221 93.3295C114.379 92.7628 114.459 92.0744 114.459 91.2648H114.468V89.6131C114.467 88.8031 114.386 88.1152 114.228 87.5525ZM112.751 91.5115C112.756 91.9524 112.721 92.3929 112.645 92.8273C112.594 93.1362 112.489 93.4337 112.334 93.7058C112.214 93.9157 112.037 94.0871 111.824 94.1997C111.604 94.3054 111.363 94.3581 111.119 94.3535C110.876 94.3572 110.635 94.3046 110.415 94.1997C110.198 94.0865 110.018 93.9155 109.893 93.7058C109.734 93.434 109.625 93.1368 109.569 92.8273C109.486 92.3938 109.448 91.9529 109.455 91.5115V89.3497C109.448 88.91 109.485 88.4706 109.565 88.038C109.618 87.7348 109.727 87.4439 109.885 87.1798C110.01 86.9779 110.19 86.8153 110.403 86.7102C110.624 86.614 110.862 86.5644 111.103 86.5644C111.344 86.5644 111.583 86.614 111.804 86.7102C112.019 86.8127 112.199 86.9759 112.322 87.1798C112.48 87.4439 112.589 87.7348 112.642 88.038C112.722 88.4705 112.759 88.9099 112.752 89.3497V91.5115H112.751Z" fill="white"/>
</svg>
