<svg width="119" height="120" viewBox="0 0 119 120" fill="none" xmlns="http://www.w3.org/2000/svg">
<path d="M1.61598 101.716C6.13991 112.756 13.5162 115.054 18.7024 112.756C28.7322 108.312 54.7861 103.347 81.5444 115.018C116.984 130.476 124.525 107.154 113.214 83.5633C101.904 59.9727 98.0699 36.1162 111.109 22.9726C124.148 9.82903 107.085 -10.7323 76.7832 10.6706C57.2011 24.5019 42.8301 21.4221 35.1128 17.5121C27.8396 13.827 19.7509 9.9744 12.1726 12.9825C2.97715 16.6326 -0.646147 24.5464 13.3444 42.2257C33.1701 67.2788 -8.52502 76.9716 1.61598 101.716Z" fill="#DCE0F7"/>
<path d="M20.0359 47.9395H90.4421V102.086C90.4421 102.196 90.3983 102.302 90.3203 102.38C90.2423 102.458 90.1366 102.502 90.0263 102.502H20.4518C20.3415 102.502 20.2357 102.458 20.1577 102.38C20.0798 102.302 20.0359 102.196 20.0359 102.086V47.9395Z" fill="#8D9AE5"/>
<path d="M72.7795 26.7207H40.0421L20.0359 47.9393H90.4421L72.7795 26.7207Z" fill="#1630C9" fill-opacity="0.9"/>
<path d="M26.7046 18.2324L40.042 26.7199L20.0359 47.9386L4.87964 36.4199L26.7046 18.2324Z" fill="#5165D7"/>
<path d="M86.1169 18.2324L72.7794 26.7199L90.442 47.9386L107.942 36.4199L86.1169 18.2324Z" fill="#5165D7"/>
<path d="M48.643 18.6664C49.0193 18.488 49.3122 18.171 49.4603 17.7817C49.6084 17.3923 49.6003 16.9608 49.4377 16.5774L43.4377 2.42944C43.3527 2.22904 43.2281 2.0479 43.0713 1.8969C42.9145 1.7459 42.7288 1.62817 42.5254 1.55078C42.3219 1.4734 42.1049 1.43795 41.8874 1.44658C41.6699 1.45521 41.4564 1.50774 41.2597 1.601L40.1038 2.14911C39.9071 2.24237 39.7313 2.37443 39.587 2.53737C39.4427 2.7003 39.3328 2.89074 39.2639 3.09724C39.1951 3.30373 39.1687 3.52201 39.1864 3.73896C39.204 3.95591 39.2654 4.16705 39.3667 4.35968L46.5225 17.9594C46.7165 18.328 47.0455 18.6074 47.4406 18.7392C47.8358 18.871 48.2666 18.8449 48.643 18.6664Z" fill="#1630C9" fill-opacity="0.9"/>
<path d="M56.1653 17.2939C56.4377 17.2744 56.6921 17.1505 56.8752 16.948C57.0584 16.7455 57.1563 16.48 57.1483 16.207L56.852 6.13496C56.8477 5.99229 56.8147 5.85194 56.7549 5.72236C56.6951 5.59277 56.6097 5.47662 56.5038 5.38089C56.3979 5.28515 56.2738 5.21182 56.1389 5.16528C56.004 5.11874 55.861 5.09997 55.7186 5.11009L54.8818 5.16971C54.7395 5.17984 54.6007 5.21864 54.4737 5.28378C54.3468 5.34891 54.2343 5.43904 54.1431 5.54875C54.0519 5.65845 53.9838 5.78547 53.9429 5.92216C53.902 6.05885 53.8891 6.2024 53.9051 6.34419L55.0383 16.3567C55.069 16.6282 55.2033 16.8772 55.4134 17.0519C55.6234 17.2265 55.8928 17.3132 56.1653 17.2939Z" fill="#1630C9" fill-opacity="0.9"/>
<path d="M61.9725 21.0179C62.7218 21.4511 63.7736 21.0536 64.357 20.1166L74.7159 3.48015C75.3347 2.4863 75.1881 1.27499 74.3934 0.815525L73.2857 0.175191C72.491 -0.284353 71.368 0.19282 70.8154 1.22492L61.5641 18.5017C61.0431 19.4747 61.2232 20.5847 61.9725 21.0179Z" fill="#1630C9" fill-opacity="0.9"/>
</svg>
