<svg width="121" height="31" viewBox="0 0 121 31" fill="none" xmlns="http://www.w3.org/2000/svg">
<path d="M37.0022 30H33.1302V13.264H37.0022V30ZM37.4182 8.368C37.4182 9.09333 37.1835 9.66933 36.7142 10.096C36.2448 10.5227 35.6902 10.736 35.0502 10.736C34.3888 10.736 33.8235 10.5227 33.3542 10.096C32.8848 9.66933 32.6502 9.09333 32.6502 8.368C32.6502 7.62133 32.8848 7.03467 33.3542 6.608C33.8235 6.18133 34.3888 5.968 35.0502 5.968C35.6902 5.968 36.2448 6.18133 36.7142 6.608C37.1835 7.03467 37.4182 7.62133 37.4182 8.368ZM40.3419 13.808C41.0886 13.5947 42.0592 13.392 43.2539 13.2C44.4486 13.008 45.7712 12.912 47.2219 12.912C48.5872 12.912 49.7286 13.104 50.6459 13.488C51.5632 13.8507 52.2886 14.3733 52.8219 15.056C53.3766 15.7173 53.7606 16.528 53.9739 17.488C54.2086 18.4267 54.3259 19.4613 54.3259 20.592V30H50.4539V21.2C50.4539 20.304 50.3899 19.5467 50.2619 18.928C50.1552 18.288 49.9632 17.776 49.6859 17.392C49.4299 16.9867 49.0672 16.6987 48.5979 16.528C48.1499 16.336 47.5952 16.24 46.9339 16.24C46.4432 16.24 45.9312 16.272 45.3979 16.336C44.8646 16.4 44.4699 16.4533 44.2139 16.496V30H40.3419V13.808ZM74.2607 30H70.3887V13.264H74.2607V30ZM74.7087 8.368C74.7087 9.09333 74.474 9.66933 74.0047 10.096C73.5353 10.5227 72.9807 10.736 72.3407 10.736C71.6793 10.736 71.114 10.5227 70.6447 10.096C70.1753 9.66933 69.9407 9.09333 69.9407 8.368C69.9407 7.62133 70.1753 7.03467 70.6447 6.608C71.114 6.18133 71.6793 5.968 72.3407 5.968C72.9807 5.968 73.5353 6.18133 74.0047 6.608C74.474 7.03467 74.7087 7.62133 74.7087 8.368ZM64.3407 5.168C65.1513 5.168 65.834 5.232 66.3887 5.36C66.9647 5.488 67.4127 5.616 67.7327 5.744L67.1247 8.88C66.826 8.77333 66.4633 8.67733 66.0367 8.592C65.6313 8.50667 65.1833 8.464 64.6927 8.464C63.4127 8.464 62.5273 8.80533 62.0367 9.488C61.5673 10.1707 61.3327 11.056 61.3327 12.144V13.264H67.4767V16.496H61.3327V30H57.4607V12.08C57.4607 9.904 58.026 8.208 59.1567 6.992C60.2873 5.776 62.0153 5.168 64.3407 5.168ZM77.6107 13.808C78.3573 13.5947 79.328 13.392 80.5227 13.2C81.7173 13.008 83.04 12.912 84.4907 12.912C85.856 12.912 86.9973 13.104 87.9147 13.488C88.832 13.8507 89.5573 14.3733 90.0907 15.056C90.6453 15.7173 91.0293 16.528 91.2427 17.488C91.4773 18.4267 91.5947 19.4613 91.5947 20.592V30H87.7227V21.2C87.7227 20.304 87.6587 19.5467 87.5307 18.928C87.424 18.288 87.232 17.776 86.9547 17.392C86.6987 16.9867 86.336 16.6987 85.8667 16.528C85.4187 16.336 84.864 16.24 84.2027 16.24C83.712 16.24 83.2 16.272 82.6667 16.336C82.1333 16.4 81.7387 16.4533 81.4827 16.496V30H77.6107V13.808ZM98.6334 30H94.7614V13.264H98.6334V30ZM99.0494 8.368C99.0494 9.09333 98.8147 9.66933 98.3454 10.096C97.8761 10.5227 97.3214 10.736 96.6814 10.736C96.0201 10.736 95.4547 10.5227 94.9854 10.096C94.5161 9.66933 94.2814 9.09333 94.2814 8.368C94.2814 7.62133 94.5161 7.03467 94.9854 6.608C95.4547 6.18133 96.0201 5.968 96.6814 5.968C97.3214 5.968 97.8761 6.18133 98.3454 6.608C98.8147 7.03467 99.0494 7.62133 99.0494 8.368ZM101.781 8.848L105.653 8.208V13.264H111.605V16.496H105.653V23.312C105.653 24.656 105.866 25.616 106.293 26.192C106.72 26.768 107.445 27.056 108.469 27.056C109.173 27.056 109.792 26.9813 110.325 26.832C110.88 26.6827 111.317 26.544 111.637 26.416L112.277 29.488C111.829 29.68 111.242 29.872 110.517 30.064C109.792 30.2773 108.938 30.384 107.957 30.384C106.762 30.384 105.76 30.224 104.949 29.904C104.16 29.584 103.53 29.1253 103.061 28.528C102.592 27.9093 102.261 27.1733 102.069 26.32C101.877 25.4453 101.781 24.4533 101.781 23.344V8.848ZM117.652 30H113.78V13.264H117.652V30ZM118.068 8.368C118.068 9.09333 117.833 9.66933 117.364 10.096C116.895 10.5227 116.34 10.736 115.7 10.736C115.039 10.736 114.473 10.5227 114.004 10.096C113.535 9.66933 113.3 9.09333 113.3 8.368C113.3 7.62133 113.535 7.03467 114.004 6.608C114.473 6.18133 115.039 5.968 115.7 5.968C116.34 5.968 116.895 6.18133 117.364 6.608C117.833 7.03467 118.068 7.62133 118.068 8.368Z" fill="#1630C9"/>
<rect width="6.34146" height="5.70732" transform="matrix(1 0 0 -1 0 30)" fill="black"/>
<path fill-rule="evenodd" clip-rule="evenodd" d="M11.1253 14.4912L11.1254 9.01754H5.19553V14.9474H11.1254L11.1253 14.4912ZM11.1253 19.5088H0.177979V4H15.6868V14.4912H26.6341V30H11.1253V19.5088ZM15.6868 25.4386H21.6166V19.5088H15.6868V25.4386Z" fill="#1630C9"/>
<rect width="5.70732" height="5.70732" transform="matrix(1 0 0 -1 20.9268 9.70703)" fill="black"/>
</svg>
